PathFileType	4	(x/y/z)	S06_P20_T62
DataRate	CameraRate	NumFrames	NumMarkers	Units	OrigDataRate	OrigDataStartFrame	OrigNumFrames
240	240	10	51	mm	240	131	347
Frame#	Time	Sternum			R.Acromium			L.Acromium			Top.Head			R.ASIS			L.ASIS			R.PSIS			L.PSIS			R.Great.Tro			L.Great.Tro			R.Iliac.Crest			L.Iliac.Crest			V.Sacral			R.Thigh.Upper.Post			R.Thigh.Lower.Ant			R.Thigh.Lower.Post			R.Thigh.Upper.Ant			R.Knee.Lat			R.Knee.Med			R.Shank.Upper.Post			R.Shank.Lower.Ant			R.Shank.Lower.Post			R.Shank.Upper.Ant			R.Ankle.Lat			R.Ankle.Med			R.Heel.Upper			R.Heel.Med			R.Heel.Lat			R.Toe.Lat			R.Toe.Med			R.Toe.Tip			L.Thigh.Upper.Post			L.Thigh.Lower.Ant			L.Thigh.Lower.Post			L.Thigh.Upper.Ant			L.Knee.Lat			L.Knee.Med			L.Shank.Upper.Post			L.Shank.Lower.Ant			L.Shank.Lower.Post			L.Shank.Upper.Ant			L.Ankle.Lat			L.Ankle.Med			L.Heel.Upper			L.Heel.Med			L.Heel.Lat			L.Toe.Lat			L.Toe.Med			L.Toe.Tip			Cervical.Spine			Back			
		X1	Y1	Z1	X2	Y2	Z2	X3	Y3	Z3	X4	Y4	Z4	X5	Y5	Z5	X6	Y6	Z6	X7	Y7	Z7	X8	Y8	Z8	X9	Y9	Z9	X10	Y10	Z10	X11	Y11	Z11	X12	Y12	Z12	X13	Y13	Z13	X14	Y14	Z14	X15	Y15	Z15	X16	Y16	Z16	X17	Y17	Z17	X18	Y18	Z18	X19	Y19	Z19	X20	Y20	Z20	X21	Y21	Z21	X22	Y22	Z22	X23	Y23	Z23	X24	Y24	Z24	X25	Y25	Z25	X26	Y26	Z26	X27	Y27	Z27	X28	Y28	Z28	X29	Y29	Z29	X30	Y30	Z30	X31	Y31	Z31	X32	Y32	Z32	X33	Y33	Z33	X34	Y34	Z34	X35	Y35	Z35	X36	Y36	Z36	X37	Y37	Z37	X38	Y38	Z38	X39	Y39	Z39	X40	Y40	Z40	X41	Y41	Z41	X42	Y42	Z42	X43	Y43	Z43	X44	Y44	Z44	X45	Y45	Z45	X46	Y46	Z46	X47	Y47	Z47	X48	Y48	Z48	X49	Y49	Z49	X50	Y50	Z50	X51	Y51	Z51	

131	0.54167	-569.43	1269.7	342.66	-698.2	1479	508.25	-688.99	1481.3	154.89	-698.29	1797.9	326.15	-630.75	1039.5	463.01	-620.1	1028.1	209.92	NaN	NaN	NaN	-822.84	1066.3	282.97	-686.31	970.86	510.97	-718.24	966.5	152.38	-719.1	1114.2	491.75	-684.99	1106.4	171.49	-839.47	1030.5	325.47	-619.53	728.25	494.59	-544.24	666	456.68	-608.56	642.05	470.3	-551.34	755.4	478.26	-554.58	543.98	455.7	-553.58	551.25	327.93	-572.34	314	450.06	-505.58	256.96	428.45	-568.98	237.4	433.7	-510.85	332.08	443.09	-517.63	107.98	410.52	-502.49	118.12	320.53	-579.52	68.522	355.25	-567	39.064	324.59	-568.8	36.605	389.08	-392.35	47.442	429.89	-369.31	67.793	313.82	-305.65	90.84	360.45	-689.13	701.63	164.7	-644.13	614.48	215.53	-714.07	615.13	178.54	-623.27	706.21	196.23	-752.65	523.97	193.42	-715.86	518.93	310.69	-914.25	363.13	201.15	-899.07	276.05	205.32	-961.12	308.86	218.47	-856.07	331.66	193.72	-1010.5	167.18	219.44	-1002.8	169.84	310.81	-1097.5	173	260.47	-1107.1	149.45	293.83	-1103.1	146.91	232.23	-954.45	52.524	203.26	-941.73	53.846	323.55	-872.34	39.781	275.22	-750.25	1535.5	330.06	-810.8	1264.8	324.36
132	0.54583	-563.85	1270.1	343.14	-692.5	1479.4	508.78	-683.63	1481.6	155.42	-692.83	1798.2	326.51	-625.15	1040	463.61	-614.61	1028.5	210.6	NaN	NaN	NaN	-817.24	1066.6	283.41	-680.84	971.34	511.5	-712.31	966.64	152.89	-713.43	1114.7	492.25	-679.37	1106.7	172.02	-833.86	1030.8	325.96	-614.44	728.55	495.29	-539.37	666.09	457.33	-603.71	642.3	471.11	-546.18	755.56	478.93	-550.21	543.93	456.32	-549.38	551.27	328.6	-569.65	313.99	450.61	-503.37	256.5	428.75	-566.91	237.39	434.16	-508.04	331.62	443.5	-516.84	107.72	410.67	-501.48	117.87	320.68	-579.17	68.847	355.4	-566.88	39.325	324.68	-568.69	36.76	389.17	-392.09	46.117	429.93	-368.85	66.412	313.82	-304.91	88.756	360.47	-680.28	701.46	164.22	-634.21	614.67	214.7	-704.27	614.65	177.93	-614.41	706.67	195.65	-742.05	523.46	192.66	-704.84	518.19	309.86	-905.44	365.26	200.24	-891.67	277.97	204.68	-953.2	311.81	217.53	-847.69	332.89	193.11	-1004.5	170.9	218.57	-997.23	173.68	310.09	-1091.3	179.63	259.49	-1101.8	156.61	292.95	-1097.7	153.73	231.36	-952.28	54.348	203.09	-939.9	55.616	323.25	-871.14	39.516	275.22	-744.79	1535.7	330.61	-805.24	1265.2	324.96
133	0.55	-558.3	1270.6	343.6	-686.8	1479.9	509.29	-678.28	1481.9	155.95	-687.38	1798.5	326.87	-619.6	1040.5	464.21	-609.14	1028.9	211.26	NaN	NaN	NaN	-811.68	1066.9	283.85	-675.4	971.88	512.03	-706.4	966.79	153.4	-707.79	1115.2	492.74	-673.78	1107.1	172.53	-828.28	1031.2	326.44	-609.44	728.89	496.02	-534.56	666.2	458.02	-598.95	642.58	471.94	-541.07	755.74	479.65	-545.95	543.88	456.97	-545.24	551.3	329.31	-567.06	314	451.17	-501.25	256.06	429.08	-564.93	237.41	434.63	-505.33	331.19	443.94	-516.1	107.49	410.83	-500.53	117.67	320.83	-578.84	69.143	355.55	-566.77	39.576	324.78	-568.59	36.897	389.26	-391.86	44.916	429.99	-368.42	65.163	313.84	-304.24	86.837	360.51	-671.32	701.33	163.72	-624.19	614.94	213.91	-694.35	614.23	177.32	-605.47	707.19	195.09	-731.25	522.99	191.9	-693.69	517.52	309.06	-896.33	367.44	199.3	-883.98	279.96	204.07	-944.99	314.83	216.56	-839.04	334.18	192.54	-998.18	174.77	217.71	-991.43	177.64	309.38	-1084.7	186.4	258.49	-1096.1	163.9	292.02	-1092.1	160.71	230.43	-949.81	56.421	202.9	-937.81	57.578	322.93	-869.69	39.314	275.2	-739.33	1536	331.17	-799.7	1265.5	325.56
134	0.55417	-552.77	1271.1	344.03	-681.08	1480.4	509.8	-672.95	1482.3	156.47	-681.93	1798.9	327.23	-614.08	1041.1	464.79	-603.68	1029.4	211.88	NaN	NaN	NaN	-806.14	1067.3	284.27	-669.99	972.46	512.55	-700.52	966.95	153.89	-702.17	1115.7	493.21	-668.23	1107.5	173.03	-822.73	1031.6	326.93	-604.54	729.25	496.78	-529.84	666.32	458.73	-594.26	642.88	472.79	-536.04	755.93	480.4	-541.8	543.85	457.64	-541.15	551.33	330.04	-564.57	314.03	451.73	-499.22	255.65	429.43	-563.03	237.44	435.1	-502.72	330.78	444.4	-515.44	107.29	410.99	-499.65	117.51	320.99	-578.55	69.411	355.7	-566.65	39.815	324.87	-568.48	37.018	389.36	-391.64	43.836	430.08	-368.03	64.041	313.86	-303.62	85.078	360.56	-662.26	701.25	163.21	-614.09	615.29	213.16	-684.31	613.85	176.71	-596.47	707.79	194.57	-720.27	522.57	191.16	-682.43	516.94	308.31	-886.94	369.67	198.33	-875.98	282.03	203.5	-936.5	317.9	215.57	-830.12	335.52	192.01	-991.58	178.76	216.86	-985.37	181.71	308.69	-1077.7	193.26	257.46	-1090	171.29	291.02	-1086	167.83	229.46	-947	58.747	202.68	-935.43	59.737	322.58	-867.94	39.194	275.18	-733.87	1536.3	331.72	-794.19	1265.9	326.16
135	0.55833	-547.27	1271.6	344.44	-675.35	1480.9	510.3	-667.63	1482.7	156.99	-676.48	1799.2	327.59	-608.59	1041.7	465.36	-598.24	1029.9	212.46	NaN	NaN	NaN	-800.64	1067.6	284.69	-664.6	973.08	513.07	-694.66	967.11	154.37	-696.58	1116.3	493.67	-662.71	1107.9	173.5	-817.22	1032	327.4	-599.73	729.62	497.54	-525.2	666.44	459.47	-589.67	643.19	473.64	-531.08	756.12	481.19	-537.77	543.82	458.33	-537.12	551.38	330.78	-562.17	314.07	452.3	-497.28	255.27	429.79	-561.23	237.5	435.57	-500.21	330.38	444.87	-514.83	107.11	411.14	-498.83	117.4	321.16	-578.28	69.65	355.84	-566.54	40.04	324.96	-568.39	37.122	389.45	-391.44	42.873	430.18	-367.68	63.042	313.88	-303.07	83.477	360.62	-653.13	701.22	162.7	-603.92	615.74	212.47	-674.17	613.54	176.11	-587.44	708.47	194.09	-709.12	522.2	190.43	-671.09	516.46	307.63	-877.3	371.95	197.35	-867.71	284.16	202.98	-927.75	321.02	214.56	-820.97	336.92	191.54	-984.69	182.88	216.03	-979.05	185.89	308.01	-1070.5	200.18	256.41	-1083.7	178.71	289.96	-1079.5	175.03	228.43	-943.83	61.324	202.44	-932.71	62.097	322.21	-865.86	39.18	275.13	-728.42	1536.7	332.27	-788.7	1266.4	326.75
136	0.5625	-541.79	1272.2	344.83	-669.61	1481.5	510.78	-662.33	1483.1	157.5	-671.05	1799.6	327.95	-603.14	1042.3	465.92	-592.81	1030.4	213.01	NaN	NaN	NaN	-795.17	1068	285.11	-659.24	973.74	513.58	-688.84	967.27	154.83	-691	1116.8	494.11	-657.25	1108.3	173.96	-811.74	1032.5	327.88	-595.02	730.01	498.31	-520.65	666.56	460.23	-585.18	643.51	474.49	-526.21	756.3	481.98	-533.85	543.79	459.04	-533.14	551.42	331.54	-559.87	314.13	452.86	-495.44	254.91	430.15	-559.51	237.58	436.02	-497.8	330.01	445.36	-514.27	106.95	411.28	-498.08	117.32	321.32	-578.03	69.861	355.97	-566.42	40.25	325.04	-568.29	37.213	389.53	-391.26	42.023	430.3	-367.35	62.157	313.9	-302.57	82.027	360.68	-643.93	701.25	162.21	-593.71	616.28	211.85	-663.95	613.29	175.53	-578.37	709.23	193.68	-697.84	521.91	189.74	-659.7	516.1	307.02	-867.42	374.27	196.36	-859.17	286.36	202.5	-918.76	324.18	213.55	-811.6	338.39	191.11	-977.53	187.1	215.21	-972.49	190.15	307.35	-1062.9	207.11	255.34	-1077	186.13	288.85	-1072.7	182.26	227.35	-940.25	64.145	202.16	-929.64	64.656	321.81	-863.4	39.298	275.07	-722.97	1537	332.81	-783.23	1266.8	327.34
137	0.56667	-536.33	1272.7	345.19	-663.86	1482	511.25	-657.04	1483.5	158	-665.62	1800	328.31	-597.72	1042.9	466.45	-587.39	1030.9	213.52	NaN	NaN	NaN	-789.73	1068.4	285.52	-653.89	974.42	514.08	-683.04	967.43	155.28	-685.46	1117.4	494.54	-651.83	1108.7	174.38	-806.3	1032.9	328.35	-590.42	730.4	499.08	-516.19	666.66	461.01	-580.8	643.84	475.32	-521.44	756.46	482.77	-530.05	543.77	459.75	-529.23	551.47	332.3	-557.67	314.2	453.4	-493.67	254.57	430.53	-557.87	237.68	436.46	-495.48	329.65	445.84	-513.78	106.81	411.41	-497.4	117.28	321.48	-577.81	70.046	356.1	-566.31	40.444	325.12	-568.2	37.292	389.61	-391.1	41.277	430.43	-367.06	61.38	313.93	-302.12	80.72	360.75	-634.68	701.35	161.74	-583.47	616.93	211.32	-653.66	613.12	174.99	-569.3	710.08	193.35	-686.44	521.7	189.1	-648.29	515.86	306.49	-857.33	376.62	195.37	-850.39	288.63	202.07	-909.55	327.38	212.54	-802.02	339.92	190.73	-970.09	191.41	214.41	-965.68	194.48	306.7	-1055	214.01	254.25	-1070	193.49	287.69	-1065.5	189.47	226.24	-936.24	67.194	201.86	-926.18	67.406	321.38	-860.52	39.575	275	-717.51	1537.4	333.35	-777.78	1267.3	327.92
138	0.57083	-530.9	1273.2	345.52	-658.11	1482.6	511.7	-651.77	1483.9	158.48	-660.21	1800.4	328.66	-592.33	1043.5	466.97	-581.98	1031.4	213.98	NaN	NaN	NaN	-784.33	1068.7	285.92	-648.56	975.13	514.56	-677.28	967.58	155.71	-679.93	1118	494.95	-646.47	1109.1	174.79	-800.89	1033.4	328.82	-585.93	730.79	499.83	-511.82	666.76	461.8	-576.52	644.17	476.13	-516.76	756.6	483.54	-526.36	543.75	460.46	-525.38	551.53	333.06	-555.56	314.29	453.92	-492	254.26	430.9	-556.32	237.8	436.88	-493.25	329.31	446.33	-513.33	106.69	411.53	-496.78	117.26	321.64	-577.62	70.206	356.21	-566.21	40.621	325.19	-568.12	37.361	389.68	-390.95	40.628	430.56	-366.8	60.702	313.95	-301.72	79.547	360.81	-625.39	701.52	161.31	-573.21	617.7	210.9	-643.32	613.05	174.5	-560.23	711.03	193.12	-674.93	521.58	188.5	-636.89	515.76	306.05	-847.06	379.02	194.4	-841.39	290.96	201.68	-900.13	330.61	211.54	-792.26	341.52	190.41	-962.4	195.78	213.63	-958.63	198.87	306.06	-1046.8	220.82	253.16	-1062.7	200.74	286.49	-1058	196.6	225.09	-931.76	70.454	201.53	-922.3	70.336	320.93	-857.19	40.037	274.9	-712.06	1537.8	333.87	-772.36	1267.8	328.49
139	0.575	-525.49	1273.7	345.82	-652.35	1483.1	512.14	-646.51	1484.4	158.95	-654.8	1800.7	329.01	-586.97	1044.2	467.47	-576.59	1031.9	214.4	NaN	NaN	NaN	-778.96	1069.1	286.32	-643.25	975.86	515.03	-671.55	967.73	156.12	-674.44	1118.6	495.35	-641.17	1109.5	175.16	-795.52	1033.8	329.29	-581.54	731.17	500.57	-507.55	666.84	462.59	-572.34	644.49	476.91	-512.19	756.7	484.28	-522.78	543.73	461.17	-521.59	551.59	333.81	-553.53	314.4	454.41	-490.4	253.97	431.26	-554.85	237.94	437.26	-491.12	328.99	446.8	-512.93	106.59	411.63	-496.22	117.26	321.79	-577.45	70.345	356.32	-566.11	40.784	325.26	-568.04	37.421	389.75	-390.81	40.065	430.7	-366.56	60.114	313.97	-301.37	78.498	360.88	-616.06	701.79	160.92	-562.95	618.58	210.58	-632.93	613.07	174.05	-551.18	712.08	192.99	-663.35	521.58	187.97	-625.5	515.81	305.71	-836.64	381.46	193.46	-832.17	293.34	201.35	-890.53	333.85	210.55	-782.34	343.19	190.13	-954.45	200.2	212.87	-951.35	203.29	305.43	-1038.4	227.5	252.07	-1055.1	207.82	285.27	-1050.2	203.6	223.92	-926.8	73.9	201.16	-917.96	73.426	320.45	-853.37	40.71	274.78	-706.6	1538.2	334.39	-766.96	1268.3	329.06
140	0.57917	-520.11	1274.2	346.1	-646.59	1483.7	512.56	-641.27	1484.9	159.4	-649.4	1801.1	329.36	-581.63	1044.8	467.94	-571.22	1032.4	214.79	NaN	NaN	NaN	-773.62	1069.5	286.71	-637.96	976.61	515.48	-665.86	967.87	156.51	-668.97	1119.2	495.73	-635.93	1109.8	175.52	-790.19	1034.3	329.76	-577.26	731.56	501.27	-503.36	666.9	463.37	-568.27	644.81	477.66	-507.72	756.76	484.98	-519.31	543.71	461.86	-517.87	551.65	334.53	-551.6	314.52	454.86	-488.88	253.7	431.62	-553.46	238.1	437.62	-489.08	328.69	447.26	-512.57	106.51	411.72	-495.71	117.29	321.93	-577.3	70.464	356.41	-566.01	40.932	325.32	-567.96	37.475	389.81	-390.69	39.58	430.84	-366.35	59.608	313.99	-301.05	77.562	360.95	-606.71	702.15	160.6	-552.7	619.59	210.38	-622.51	613.2	173.67	-542.16	713.24	192.98	-651.72	521.69	187.5	-614.16	516.01	305.47	-826.08	383.92	192.56	-822.77	295.78	201.05	-880.76	337.11	209.59	-772.27	344.94	189.9	-946.26	204.63	212.13	-943.84	207.72	304.82	-1029.8	234	250.98	-1047.3	214.67	284.02	-1042.1	210.41	222.73	-921.33	77.502	200.76	-913.15	76.656	319.95	-849.02	41.617	274.63	-701.15	1538.6	334.89	-761.58	1268.8	329.61
